<?xml version="1.0" encoding="UTF-8"?>
<svg id="Camada_1" xmlns="http://www.w3.org/2000/svg" version="1.1" viewBox="0 0 160 160">
  <!-- Generator: Adobe Illustrator 30.1.0, SVG Export Plug-In . SVG Version: 2.1.1 Build 136)  -->
  <defs>
    <style>
      .st0 {
        fill: #15489d;
      }
    </style>
  </defs>
  <g>
    <polygon class="st0" points="94.61 100.07 104.74 100.07 104.74 45.79 104.86 38.36 104.57 38.3 12.02 99.98 35.77 100.17 36 100.07 65.65 79.83 65.65 100.69 75.77 100.69 75.77 72.92 94.61 60.05 94.61 100.07"/>
    <polygon class="st0" points="119.28 90.04 119.28 38.3 108.93 38.3 108.93 90.04 108.93 100.07 119.28 100.07 139.22 100.07 139.22 90.04 119.28 90.04"/>
  </g>
  <g>
    <path class="st0" d="M16.04,107.48h1.38s5.83,11.21,5.83,11.21l5.83-11.21h1.38s0,14.22,0,14.22h-1.31s0-11.56,0-11.56l-5.31,10.22h-1.18s-5.31-10.22-5.31-10.22v11.56s-1.31,0-1.31,0v-14.22Z"/>
    <path class="st0" d="M35.26,107.48h9.44s0,1.22,0,1.22h-8.12v5.26h5.24s0,1.22,0,1.22h-5.24v5.3h8.12s0,1.22,0,1.22h-9.44s0-14.22,0-14.22Z"/>
    <path class="st0" d="M52.6,108.7h-4.3s0-1.22,0-1.22h9.92s0,1.22,0,1.22h-4.3v13s-1.31,0-1.31,0v-13Z"/>
    <path class="st0" d="M64.77,107.48h1.25s5.57,14.22,5.57,14.22h-1.4s-2.03-5.18-2.03-5.18h-5.53s-2.03,5.18-2.03,5.18h-1.4s5.57-14.22,5.57-14.22ZM67.67,115.3l-2.29-5.83-2.27,5.83h4.57Z"/>
    <path class="st0" d="M75.62,107.48h1.31s0,13,0,13h7.62s0,1.22,0,1.22h-8.93s0-14.22,0-14.22Z"/>
    <path class="st0" d="M90.76,121.13c-.92-.35-1.73-.86-2.42-1.52-.71-.65-1.26-1.4-1.64-2.25-.41-.88-.61-1.8-.61-2.76s.2-1.89.61-2.78c.38-.84.92-1.59,1.64-2.25.7-.65,1.51-1.16,2.42-1.52.95-.37,1.94-.55,2.97-.55s2.03.18,2.99.55c.9.37,1.71.87,2.42,1.52.7.66,1.24,1.42,1.64,2.25.39.89.59,1.82.59,2.78s-.2,1.88-.59,2.76c-.39.85-.94,1.6-1.64,2.25-.71.66-1.52,1.17-2.42,1.52-.96.38-1.96.57-2.99.57s-2.02-.19-2.97-.57ZM96.15,120.04c.77-.3,1.46-.72,2.05-1.28.61-.56,1.07-1.19,1.39-1.91.31-.72.47-1.47.47-2.25s-.16-1.54-.47-2.25-.78-1.35-1.39-1.91c-.6-.57-1.28-1-2.05-1.29-.77-.29-1.58-.44-2.42-.44s-1.65.15-2.42.44c-.77.29-1.46.72-2.05,1.29-.6.56-1.06,1.19-1.38,1.91-.32.72-.48,1.47-.48,2.25s.16,1.54.48,2.25c.32.72.78,1.35,1.38,1.91.6.56,1.28.98,2.05,1.28.77.3,1.58.45,2.42.45s1.65-.15,2.42-.45Z"/>
    <path class="st0" d="M106.96,107.48l8.78,12.21v-12.21s1.31,0,1.31,0v14.22s-1.44,0-1.44,0l-8.78-12.21v12.21s-1.31,0-1.31,0v-14.22s1.44,0,1.44,0Z"/>
    <path class="st0" d="M126.66,107.48h1.25s5.57,14.22,5.57,14.22h-1.4s-2.03-5.18-2.03-5.18h-5.53s-2.03,5.18-2.03,5.18h-1.4s5.57-14.22,5.57-14.22ZM129.57,115.3l-2.29-5.83-2.27,5.83h4.57Z"/>
    <path class="st0" d="M138.11,120.48c-.45-.34-.81-.72-1.07-1.14-.26-.42-.39-.83-.39-1.22h1.31c0,.27.16.59.49.96.33.37.82.7,1.46.97.65.28,1.44.42,2.37.42,1.35,0,2.42-.21,3.2-.63.78-.42,1.17-1,1.17-1.73s-.42-1.35-1.27-1.85c-.36-.2-.76-.38-1.19-.52-.43-.14-.94-.29-1.52-.46l-.55-.14-.52-.14c-.63-.16-1.18-.32-1.67-.49-.49-.16-.94-.37-1.37-.63-1.28-.73-1.92-1.69-1.92-2.88,0-.53.13-1.02.4-1.47.27-.45.66-.84,1.17-1.15,1.02-.64,2.4-.95,4.13-.95s3.08.41,4.17,1.24c.45.32.81.7,1.07,1.12.26.42.39.83.39,1.22h-1.31c0-.26-.16-.58-.49-.95-.33-.38-.82-.71-1.46-.99-.65-.28-1.44-.42-2.37-.42-1.35,0-2.42.21-3.21.63-.79.42-1.18,1-1.18,1.73s.43,1.36,1.29,1.85c.36.22.76.4,1.19.54.43.14.94.29,1.54.46l1.05.28c.64.16,1.2.32,1.68.49s.93.37,1.35.61c1.27.73,1.9,1.69,1.9,2.88,0,.53-.13,1.02-.4,1.47-.27.45-.65.84-1.15,1.15-1.02.64-2.4.95-4.13.95s-3.08-.41-4.17-1.22Z"/>
  </g>
</svg>